<svg xmlns="http://www.w3.org/2000/svg" xml:space="preserve" style="fill-rule:evenodd;clip-rule:evenodd;stroke-linejoin:round;stroke-miterlimit:2" viewBox="0 0 2000 1000"><path d="M209 260h800v800H209z" style="fill:#f7df1e;fill-rule:nonzero" transform="translate(0 -250)"/><path d="m419.35 928.538 61.219-37.05c11.812 20.94 22.556 38.659 48.328 38.659 24.703 0 40.281-9.663 40.281-47.25V627.278h75.178V883.96c0 77.866-45.644 113.31-112.237 113.31-60.14 0-95.05-31.147-112.772-68.738m265.844-8.05 61.212-35.44c16.116 26.315 37.06 45.646 74.11 45.646 31.153 0 51.015-15.575 51.015-37.056 0-25.775-20.406-34.906-54.775-49.937l-18.79-8.063c-54.241-23.084-90.22-52.084-90.22-113.303 0-56.387 42.96-99.35 110.088-99.35 47.794 0 82.163 16.65 106.863 60.147l-58.538 37.594c-12.89-23.09-26.847-32.219-48.328-32.219-22.019 0-35.981 13.962-35.981 32.219 0 22.553 13.962 31.687 46.181 45.65l18.794 8.053c63.906 27.39 99.884 55.312 99.884 118.137 0 67.67-53.162 104.72-124.584 104.72-69.81 0-114.919-33.295-136.934-76.795M1049.9 999h154.55c79.81 0 128.14-50.018 128.14-118.02 0-47.77-25.29-82.614-77.56-94.978 33.16-10.678 53.95-34.844 53.95-70.25 0-53.952-39.9-98.912-111.27-98.912H1049.9zm78.68-241.098v-71.936h64.63c24.17 0 38.22 14.05 38.22 35.968s-16.86 35.968-42.15 35.968zm0 171.972V824.78h68c35.97 0 56.77 21.356 56.77 52.266 0 31.472-20.24 52.828-52.27 52.828zm295.05-210.188c25.85 0 47.77-19.67 47.77-47.77 0-27.538-21.92-47.208-47.77-47.208s-48.33 19.67-48.33 47.208c0 28.1 22.48 47.77 48.33 47.77M1385.42 999h75.87V759.588h-75.87zm138.25 0h75.87V870.864c0-30.348 17.98-47.208 48.33-47.208 26.98 0 39.9 15.174 39.9 42.15V999h75.87V860.748c0-68.002-37.65-106.218-89.92-106.218-33.16 0-61.26 15.736-75.87 44.398l1.69-39.34h-75.87z" style="fill-rule:nonzero" transform="translate(0 -250)"/><path d="M217.154 1099.19V1207h21.442v-40.92c0-7.95 1.309-13.67 3.926-17.14s6.845-5.21 12.684-5.21c5.134 0 8.708 1.59 10.721 4.76s3.02 7.97 3.02 14.42V1207h21.442v-48.02c0-4.83-.428-9.23-1.284-13.21-.855-3.98-2.34-7.35-4.454-10.12s-5.008-4.93-8.683-6.49q-5.511-2.34-14.118-2.34-6.04 0-12.382 3.09c-4.228 2.07-7.701 5.36-10.419 9.9h-.453v-40.62zm88.637 53.75c.302-5.03 1.56-9.21 3.775-12.53a25.6 25.6 0 0 1 8.456-8c3.423-2.02 7.273-3.45 11.551-4.31a66 66 0 0 1 12.911-1.28c3.926 0 7.902.28 11.929.83s7.701 1.64 11.023 3.25q4.983 2.415 8.154 6.72t3.171 11.4v40.61c0 3.53.201 6.9.604 10.12s1.107 5.64 2.114 7.25h-21.744a31 31 0 0 1-.981-3.7 32 32 0 0 1-.529-3.85c-3.423 3.52-7.45 5.99-12.08 7.4-4.6 1.4-9.384 2.12-14.194 2.11-3.725 0-7.198-.45-10.419-1.36-3.221-.9-6.04-2.31-8.456-4.22-2.416-1.92-4.304-4.33-5.663-7.25s-2.038-6.39-2.038-10.42q0-6.645 2.34-10.95t6.04-6.87c2.467-1.71 5.286-2.99 8.457-3.85a92 92 0 0 1 9.588-2.04c3.221-.5 6.392-.9 9.513-1.21 3.12-.3 5.888-.75 8.305-1.36q3.625-.9 5.738-2.64c1.41-1.16 2.064-2.84 1.963-5.06 0-2.31-.377-4.15-1.132-5.51s-1.762-2.41-3.02-3.17c-1.259-.75-2.719-1.26-4.38-1.51-1.66-.25-3.447-.38-5.36-.38-4.228 0-7.55.91-9.966 2.72q-3.624 2.715-4.228 9.06zm49.528 15.86c-.907.8-2.039 1.43-3.397 1.88-1.434.48-2.897.85-4.38 1.14q-2.34.45-4.907.75c-1.718.2-3.43.46-5.134.76-1.611.3-3.196.7-4.756 1.21-1.56.5-2.919 1.18-4.077 2.03a9.7 9.7 0 0 0-2.794 3.25q-1.057 1.965-1.057 4.98 0 2.88 1.057 4.83c.705 1.31 1.661 2.35 2.869 3.1 1.208.76 2.617 1.28 4.228 1.59q2.417.45 4.983.45c4.228 0 7.5-.71 9.815-2.12 2.315-1.4 4.027-3.09 5.134-5.05q1.661-2.955 2.038-5.97t.378-4.83zm91.204-12.39h20.989c-.302-5.03-1.51-9.38-3.624-13.06q-3.17-5.505-8.23-9.21c-3.372-2.46-7.197-4.3-11.476-5.51-4.278-1.21-8.732-1.81-13.363-1.81-6.342 0-11.979 1.06-16.912 3.17s-9.11 5.06-12.533 8.83q-5.134 5.67-7.777 13.44c-1.762 5.19-2.643 10.8-2.642 16.84q0 8.76 2.869 16.08c1.913 4.88 4.58 9.09 8.003 12.61s7.575 6.27 12.457 8.23q7.324 2.94 16.082 2.94c10.369 0 18.875-2.71 25.519-8.15s10.671-13.34 12.08-23.71h-20.687q-1.057 7.245-5.21 11.55c-2.768 2.87-6.719 4.31-11.853 4.31-3.321 0-6.14-.76-8.456-2.27a16.95 16.95 0 0 1-5.512-5.81c-1.359-2.37-2.34-5.01-2.944-7.93a42.4 42.4 0 0 1-.906-8.61c0-2.92.302-5.86.906-8.83s1.636-5.69 3.096-8.15c1.46-2.47 3.347-4.48 5.662-6.04q3.473-2.34 8.607-2.34c9.16 0 14.445 4.48 15.855 13.43m35.485-57.22V1207h21.442v-26.88l8.305-8 21.442 34.88h25.972l-32.767-49.38 29.445-28.69h-25.368l-27.029 28.09v-57.83zm85.617 84.56V1207h23.707v-23.25zm83.654-84.56V1207h21.442v-107.81zm90.902 60.4H707.3c.1-1.51.427-3.22.982-5.14q.83-2.865 2.868-5.43c1.36-1.71 3.172-3.15 5.437-4.31 2.264-1.15 5.108-1.73 8.531-1.73 5.235 0 9.135 1.4 11.702 4.22q3.85 4.23 5.361 12.39m-34.881 13.59h56.323q.605-9.06-1.51-17.37c-1.41-5.54-3.7-10.47-6.87-14.8s-7.223-7.77-12.156-10.34-10.722-3.85-17.365-3.85c-5.94 0-11.351 1.06-16.232 3.17-4.883 2.11-9.086 5.01-12.609 8.68-3.523 3.68-6.241 8.03-8.154 13.06-1.913 5.04-2.87 10.47-2.869 16.31 0 6.04.931 11.58 2.793 16.61q2.793 7.545 7.928 12.99c3.423 3.62 7.601 6.42 12.533 8.38q7.398 2.94 16.61 2.94c8.859 0 16.409-2.01 22.65-6.04 6.241-4.02 10.872-10.72 13.892-20.08h-18.875q-1.057 3.63-5.738 6.87c-3.12 2.17-6.845 3.25-11.174 3.25q-9.06 0-13.892-4.68c-3.221-3.12-4.983-8.16-5.285-15.1m68.101-20.24c.302-5.03 1.56-9.21 3.775-12.53a25.6 25.6 0 0 1 8.456-8c3.423-2.02 7.273-3.45 11.552-4.31 4.25-.85 8.575-1.28 12.91-1.28 3.926 0 7.902.28 11.929.83s7.701 1.64 11.023 3.25q4.983 2.415 8.154 6.72t3.171 11.4v40.61c0 3.53.201 6.9.604 10.12s1.107 5.64 2.114 7.25h-21.744a31 31 0 0 1-.981-3.7 32 32 0 0 1-.529-3.85c-3.423 3.52-7.45 5.99-12.08 7.4-4.6 1.4-9.384 2.12-14.194 2.11-3.725 0-7.198-.45-10.419-1.36-3.221-.9-6.039-2.31-8.456-4.22-2.416-1.92-4.304-4.33-5.663-7.25s-2.038-6.39-2.038-10.42q0-6.645 2.34-10.95t6.04-6.87c2.467-1.71 5.286-2.99 8.457-3.85a92 92 0 0 1 9.588-2.04c3.221-.5 6.392-.9 9.513-1.21 3.12-.3 5.888-.75 8.305-1.36q3.625-.9 5.738-2.64c1.41-1.16 2.064-2.84 1.963-5.06 0-2.31-.377-4.15-1.132-5.51s-1.762-2.41-3.02-3.17c-1.259-.75-2.719-1.26-4.38-1.51-1.66-.25-3.447-.38-5.36-.38-4.228 0-7.55.91-9.966 2.72q-3.624 2.715-4.228 9.06zm49.528 15.86c-.906.8-2.038 1.43-3.397 1.88-1.434.48-2.897.85-4.38 1.14q-2.34.45-4.907.75c-1.718.2-3.43.46-5.134.76-1.611.3-3.196.7-4.756 1.21-1.56.5-2.919 1.18-4.077 2.03a9.7 9.7 0 0 0-2.794 3.25q-1.057 1.965-1.057 4.98 0 2.88 1.057 4.83c.705 1.31 1.661 2.35 2.869 3.1 1.208.76 2.617 1.28 4.228 1.59q2.417.45 4.983.45c4.228 0 7.5-.71 9.815-2.12 2.315-1.4 4.027-3.09 5.134-5.05q1.661-2.955 2.038-5.97t.378-4.83zm38.052-39.87V1207h21.442v-35.18c0-3.53.352-6.8 1.057-9.82s1.887-5.66 3.548-7.93c1.661-2.26 3.85-4.05 6.569-5.36 2.719-1.3 6.041-1.96 9.966-1.96 1.309 0 2.668.08 4.077.23s2.617.33 3.624.53v-19.94q-2.567-.75-4.681-.75c-2.718 0-5.335.4-7.852 1.21-2.51.8-4.898 1.94-7.097 3.39a26.6 26.6 0 0 0-5.889 5.29 26.3 26.3 0 0 0-4.077 6.72h-.302v-14.5zm61.457 0V1207h21.442v-40.92c0-7.95 1.309-13.67 3.926-17.14s6.845-5.21 12.684-5.21c5.134 0 8.708 1.59 10.721 4.76s3.02 7.97 3.02 14.42V1207h21.442v-48.02c0-4.83-.428-9.23-1.284-13.21-.855-3.98-2.34-7.35-4.454-10.12s-5.008-4.93-8.683-6.49q-5.511-2.34-14.118-2.34-6.796 0-13.288 3.09-6.493 3.105-10.57 9.9h-.453v-10.88zm90.452 54.82V1207h23.7v-23.25zm87.73-40.47V1207h21.44v-63.72h14.8v-14.35h-14.8v-4.68q0-4.83 1.89-6.87c1.26-1.36 3.35-2.04 6.26-2.04 2.72 0 5.34.15 7.86.46v-16.01c-1.87-.1-3.73-.23-5.59-.38a73 73 0 0 0-5.74-.22c-8.76 0-15.3 2.21-19.63 6.64s-6.49 10.12-6.49 17.06v6.04h-12.84v14.35zm49.22-14.35V1207h21.45v-78.07zm21.45-12.08v-17.66h-21.45v17.66zm36.84 49.08-28.09 41.07h24.01l16.31-24.61 16.31 24.61h24.46l-28.84-41.52 25.67-36.55h-23.71l-13.59 20.39-13.74-20.39h-24.46zm62.06 17.82V1207h23.71v-23.25zm110.23-54.82v-23.4h-21.44v23.4h-12.99v14.35h12.99v46.05c0 3.93.65 7.1 1.96 9.52 1.31 2.41 3.1 4.27 5.36 5.58 2.27 1.31 4.89 2.19 7.85 2.65 2.97.45 6.12.68 9.44.68 2.11 0 4.28-.06 6.5-.16q3.315-.15 6.03-.6v-16.61c-1.04.21-2.1.36-3.17.45-1.1.1-2.26.15-3.47.15-3.62 0-6.04-.6-7.25-1.81-1.2-1.21-1.81-3.62-1.81-7.25v-38.65h15.7v-14.35zm78.52 30.66h-34.88c.1-1.51.43-3.22.98-5.14.56-1.91 1.51-3.72 2.87-5.43s3.17-3.15 5.44-4.31c2.26-1.15 5.1-1.73 8.53-1.73 5.23 0 9.13 1.4 11.7 4.22s4.35 6.95 5.36 12.39m-34.88 13.59h56.32c.41-6.04-.1-11.83-1.51-17.37s-3.7-10.47-6.87-14.8-7.22-7.77-12.15-10.34c-4.94-2.57-10.73-3.85-17.37-3.85-5.94 0-11.35 1.06-16.23 3.17s-9.09 5.01-12.61 8.68c-3.52 3.68-6.24 8.03-8.15 13.06-1.92 5.04-2.87 10.47-2.87 16.31 0 6.04.93 11.58 2.79 16.61s4.51 9.36 7.93 12.99c3.42 3.62 7.6 6.42 12.53 8.38s10.47 2.94 16.61 2.94c8.86 0 16.41-2.01 22.65-6.04 6.24-4.02 10.87-10.72 13.89-20.08h-18.87c-.71 2.42-2.62 4.71-5.74 6.87-3.12 2.17-6.84 3.25-11.17 3.25q-9.06 0-13.89-4.68c-3.23-3.12-4.99-8.16-5.29-15.1m68.1-20.24c.3-5.03 1.56-9.21 3.78-12.53a25.65 25.65 0 0 1 8.45-8c3.43-2.02 7.27-3.45 11.55-4.31 4.25-.85 8.58-1.28 12.91-1.28 3.93 0 7.91.28 11.93.83 4.03.55 7.7 1.64 11.03 3.25 3.32 1.61 6.04 3.85 8.15 6.72s3.17 6.67 3.17 11.4v40.61c0 3.53.2 6.9.61 10.12.4 3.22 1.1 5.64 2.11 7.25h-21.74c-.41-1.21-.74-2.45-.99-3.7-.25-1.27-.43-2.56-.52-3.85-3.43 3.52-7.46 5.99-12.08 7.4-4.61 1.4-9.39 2.12-14.2 2.11-3.72 0-7.2-.45-10.42-1.36-3.22-.9-6.04-2.31-8.45-4.22-2.42-1.92-4.31-4.33-5.67-7.25s-2.04-6.39-2.03-10.42q0-6.645 2.34-10.95c1.55-2.87 3.57-5.16 6.03-6.87 2.47-1.71 5.29-2.99 8.46-3.85 3.16-.85 6.36-1.53 9.59-2.04 3.22-.5 6.39-.9 9.51-1.21 3.12-.3 5.89-.75 8.31-1.36 2.41-.6 4.33-1.48 5.74-2.64s2.06-2.84 1.96-5.06c0-2.31-.38-4.15-1.13-5.51-.76-1.36-1.76-2.41-3.02-3.17-1.26-.75-2.72-1.26-4.38-1.51s-3.45-.38-5.36-.38c-4.23 0-7.55.91-9.97 2.72s-3.82 4.83-4.23 9.06zm49.53 15.86c-.91.8-2.04 1.43-3.4 1.88-1.43.48-2.9.85-4.38 1.14-1.56.3-3.19.55-4.9.75-1.72.2-3.43.46-5.14.76-1.61.3-3.2.7-4.76 1.21-1.56.5-2.92 1.18-4.07 2.03a9.7 9.7 0 0 0-2.8 3.25q-1.05 1.965-1.05 4.98 0 2.88 1.05 4.83c.71 1.31 1.66 2.35 2.87 3.1 1.21.76 2.62 1.28 4.23 1.59q2.415.45 4.98.45c4.23 0 7.5-.71 9.82-2.12 2.31-1.4 4.03-3.09 5.13-5.05q1.665-2.955 2.04-5.97c.25-2.01.38-3.62.38-4.83zm91.2-12.39h20.99c-.3-5.03-1.51-9.38-3.62-13.06-2.12-3.67-4.86-6.74-8.23-9.21-3.37-2.46-7.2-4.3-11.48-5.51s-8.73-1.81-13.36-1.81c-6.34 0-11.98 1.06-16.91 3.17-4.94 2.11-9.11 5.06-12.54 8.83q-5.13 5.67-7.77 13.44c-1.76 5.19-2.64 10.8-2.64 16.84 0 5.84.95 11.2 2.86 16.08 1.92 4.88 4.58 9.09 8.01 12.61 3.42 3.52 7.57 6.27 12.45 8.23 4.89 1.96 10.25 2.94 16.09 2.94 10.37 0 18.87-2.71 25.52-8.15 6.64-5.44 10.67-13.34 12.08-23.71h-20.69c-.71 4.83-2.44 8.68-5.21 11.55s-6.72 4.31-11.85 4.31c-3.33 0-6.15-.76-8.46-2.27a16.9 16.9 0 0 1-5.51-5.81c-1.36-2.37-2.34-5.01-2.95-7.93-.59-2.83-.89-5.71-.9-8.61 0-2.92.3-5.86.9-8.83.61-2.97 1.64-5.69 3.1-8.15 1.46-2.47 3.35-4.48 5.66-6.04q3.48-2.34 8.61-2.34c9.16 0 14.44 4.48 15.85 13.43m33.52-57.22V1207h21.45v-40.92c0-7.95 1.31-13.67 3.92-17.14 2.62-3.47 6.85-5.21 12.69-5.21 5.13 0 8.7 1.59 10.72 4.76 2.01 3.17 3.02 7.97 3.02 14.42V1207h21.44v-48.02c0-4.83-.43-9.23-1.28-13.21-.86-3.98-2.34-7.35-4.46-10.12-2.11-2.77-5.01-4.93-8.68-6.49s-8.38-2.34-14.12-2.34c-4.03 0-8.15 1.03-12.38 3.09-4.23 2.07-7.7 5.36-10.42 9.9h-.45v-40.62zm90.45 84.56V1207h23.71v-23.25z" style="fill:#828282;fill-rule:nonzero" transform="translate(0 -250)"/></svg>