<svg xmlns="http://www.w3.org/2000/svg" width="530" height="215"><g transform="translate(27.49 36.71)"><circle fill="#3F5E5A" cx="179.42" cy="17.47" r="17.47"/><path fill="#3F5E5A" d="M29.52 61.48a.338.338 0 0 0 .207.309c.124.05.264.02.353-.079 10.533-10.967 23.157-14.003 37.87-9.11 7.22 2.407 12.5 6.65 15.84 12.73a.474.474 0 0 0 .363.243.496.496 0 0 0 .417-.153 198.7 198.7 0 0 1 3.92-4.07c10.133-10.3 22.203-13.373 36.21-9.22 15.94 4.72 21.35 16.5 21.17 32.16-.033 2.76-.04 20.603-.02 53.53a.47.47 0 0 1-.47.47h-28.66a.39.39 0 0 1-.39-.39c.013-27.727.023-41.737.03-42.03.193-6.253-.28-10.723-1.42-13.41-4.91-11.61-22.39-11.62-26.49.61-.607 1.827-.873 4.513-.8 8.06.02.973.023 16.497.01 46.57a.59.59 0 0 1-.59.59H58.8a.63.63 0 0 1-.63-.63c-.013-25.247-.007-40.783.02-46.61.05-9.7-4.36-16.73-14.55-17.08-6.087-.207-10.333 2.287-12.74 7.48-1.12 2.42-1.593 6.56-1.42 12.42.053 1.607.057 16.17.01 43.69a.73.73 0 0 1-.73.73H.42a.425.425 0 0 1-.297-.12.405.405 0 0 1-.123-.29V53.41c0-.337.278-.61.62-.61h28.55c.193 0 .35.152.35.34v8.34Zm214.47 3.22a.26.26 0 0 0 .48.15c.907-1.327 2.023-2.673 3.35-4.04 10.433-10.747 22.817-13.23 37.15-7.45 1.273.52 2.507 1.22 3.7 2.1.245.18.325.512.19.79l-11.71 23.74a.515.515 0 0 1-.332.27.536.536 0 0 1-.428-.07c-5.02-3.367-10.637-4.733-16.85-4.1-8.16.83-12.43 5.5-14.68 12.84-.593 1.933-.89 4.543-.89 7.83.013 26.313.023 39.963.03 40.95a.57.57 0 0 1-.57.58h-28.52a.4.4 0 0 1-.4-.4v-84.6a.48.48 0 0 1 .48-.48h28.43a.57.57 0 0 1 .57.57V64.7Zm168.47 44.79a.404.404 0 0 1 .281-.197c.12-.02.243.01.339.087 4.213 3.46 9.013 6.2 14.4 8.22 4.35 1.63 12.01 2.47 14.8-1.62 1.247-1.833 1.207-3.947-.12-6.34-.223-.4-.55-.738-.95-.98-2.627-1.587-4.64-2.61-6.04-3.07-8.36-2.73-15.86-6.4-22.13-12.33-5.46-5.16-6.84-11.98-5.95-19.21 1.59-12.86 12.23-20.16 24.2-22.48 14-2.713 27.683-1.03 41.05 5.05a.51.51 0 0 1 .24.69l-9.12 18.49a.61.61 0 0 1-.85.26c-5.833-3.24-12.03-4.947-18.59-5.12-2.81-.07-7.78.14-8.73 3.37-.813 2.76.047 4.803 2.58 6.13 2.953 1.547 8.003 3.33 15.15 5.35 2.207.62 5.383 2.233 9.53 4.84 9.667 6.06 13.373 15.223 11.12 27.49-3.73 20.37-27.01 23.6-43.93 22.45-9.65-.66-21.19-4.14-28.4-10.93a.57.57 0 0 1-.11-.71l11.23-19.44Z"/><rect width="29.48" height="85.48" x="164.27" y="52.81" rx=".39" fill="#3F5E5A"/><path d="M342.15 116.79c14.26.01 16.8-10.29 16.85-22 .067-13.987.1-27.787.1-41.4 0-.31.25-.56.56-.56h28.22a.6.6 0 0 1 .6.6c.107 19.727.06 36.67-.14 50.83-.1 6.72-1.51 12.833-4.23 18.34-7.72 15.63-26.55 18.17-41.98 18.16-15.42-.02-34.25-2.58-41.94-18.23-2.713-5.513-4.113-11.63-4.2-18.35-.18-14.16-.2-31.103-.06-50.83a.6.6 0 0 1 .61-.6l28.22.05a.56.56 0 0 1 .55.56c-.02 13.613-.01 27.413.03 41.4.04 11.71 2.56 22.02 16.81 22.03Z" fill="#3F5E5A"/></g></svg>