<svg viewBox="0 0 475 200" xmlns="http://www.w3.org/2000/svg" xml:space="preserve" fill-rule="evenodd" clip-rule="evenodd" stroke-linejoin="round" stroke-miterlimit="2"><path fill="none" d="M0 0h475v200H0z"/><path d="M229.532 69.632v-9.777h-40.6v9.777h14.733v35.712h11.134V69.632h14.733Zm33.268 18.67c-.204-11.134-7.944-18.059-17.584-18.059-9.913 0-18.06 7.332-18.06 18.059 0 10.795 8.147 18.06 17.992 18.06 7.807 0 13.986-3.463 16.905-10.659l-9.641-1.969c-1.833 3.327-4.752 3.938-7.264 3.938-3.667 0-6.45-2.512-7.333-6.586H262.8v-2.784Zm-17.584-9.233c3.123 0 5.838 1.697 6.857 5.363h-14.054c1.018-3.462 4.141-5.363 7.197-5.363Zm45.963 16.226c-1.426.815-3.462 1.358-4.956 1.358-2.851 0-4.549-1.425-4.549-4.956V79.884h10.048v-8.623h-10.048V61.213h-10.863v10.048h-6.178v8.623h6.178v12.899c0 8.962 5.092 13.579 13.579 13.579 3.87 0 6.653-1.086 9.301-2.512l-2.512-8.555Zm29.262-24.509c-5.567 0-9.301 2.919-11.745 6.993v-6.518h-10.863v34.083h10.863v-10.66c0-8.826 4.141-12.764 11.745-12.764h1.969l.475-10.862c-.814-.204-1.493-.272-2.444-.272Zm42.705.475h-10.863v2.716c-2.648-2.376-6.178-3.734-10.591-3.734-9.03 0-16.634 7.332-16.634 18.059 0 10.795 7.604 18.06 16.634 18.06 4.413 0 7.943-1.358 10.591-3.734v2.716h10.863V71.261Zm-19.214 25.868c-4.752 0-8.215-3.531-8.215-8.827 0-5.227 3.463-8.826 8.215-8.826 4.413 0 8.351 3.599 8.351 8.826 0 5.296-3.938 8.827-8.351 8.827Zm-113.755 49.316h-15.552v-35.712h-11.202v45.488h26.754v-9.776Zm21.372-25.188c-10.32 0-18.875 7.196-18.875 17.923 0 10.795 8.555 17.992 18.875 17.992 10.116 0 18.67-7.197 18.67-17.992 0-10.727-8.554-17.923-18.67-17.923Zm0 26.749c-4.413 0-8.419-3.462-8.419-8.826 0-5.295 4.006-8.826 8.419-8.826 4.209 0 8.215 3.531 8.215 8.826 0 5.364-4.006 8.826-8.215 8.826Zm59.406-25.867h-10.659v2.241c-2.444-2.105-5.839-3.259-10.252-3.259-8.894 0-16.43 6.993-16.43 16.43 0 9.641 7.536 16.702 16.43 16.702 4.413 0 7.808-1.155 10.252-3.259v.95c0 5.364-3.53 8.283-8.487 8.283-3.53 0-5.431-1.154-8.011-4.209l-9.03 4.888c3.327 5.499 9.302 8.215 17.109 8.215 11.067 0 19.078-5.771 19.078-16.294v-30.688Zm-18.603 23.22c-4.752 0-8.147-3.259-8.147-7.808 0-4.549 3.395-7.74 8.147-7.74 4.346 0 7.944 3.191 7.944 7.74s-3.598 7.808-7.944 7.808Zm32.521-39.446c-3.666 0-6.246 2.851-6.246 6.178 0 3.462 2.58 6.042 6.246 6.042 3.666 0 6.314-2.58 6.314-6.042 0-3.327-2.648-6.178-6.314-6.178Zm5.432 50.308v-34.082h-10.863v34.082h10.863Zm24.781-8.486c-4.889 0-8.147-3.531-8.147-8.555 0-4.956 3.258-8.554 8.147-8.554 3.462 0 6.246 1.901 7.196 6.042l10.184-2.444c-1.901-8.011-9.097-13.103-17.38-13.103-10.184 0-18.603 7.332-18.603 18.059 0 10.795 8.419 18.06 18.603 18.06 8.486 0 15.683-5.228 17.38-13.307l-9.98-2.173c-1.154 4.142-3.938 5.975-7.4 5.975Zm58.863-25.596h-10.863v2.716c-2.648-2.376-6.178-3.734-10.591-3.734-9.03 0-16.634 7.332-16.634 18.059 0 10.795 7.604 18.06 16.634 18.06 4.413 0 7.943-1.358 10.591-3.734v2.715h10.863v-34.082Zm-19.214 25.867c-4.752 0-8.215-3.53-8.215-8.826 0-5.227 3.463-8.826 8.215-8.826 4.413 0 8.351 3.599 8.351 8.826 0 5.296-3.938 8.826-8.351 8.826Zm37.953-40.668h-10.863v48.883h10.863v-48.883Z" fill="#420065" fill-rule="nonzero"/><g fill="#2d0045"><path d="m91.998 135.173 50.418-74.16 4.943 3.36-50.418 74.161-4.943-3.361Z" fill-opacity=".84"/><path d="M143.173 146.63 70.77 95.919l3.43-4.896 72.402 50.711-3.429 4.896Z" fill-opacity=".28"/><path d="M72.73 75.823 135.457 50.8l3.323 8.328-62.73 25.024-3.322-8.328.002-.001Zm86.862-8.587v69.618h-8.966V67.236h8.966Zm-85.483 68.616L61.82 100.97l8.457-2.98 12.29 34.882-8.457 2.98h-.001Zm66.685 19.877-37.667.088-.02-8.967 37.666-.087.021 8.966Z" fill-opacity=".62"/></g><path d="M155.109 33.466c-7.909 0-14.321 6.412-14.321 14.321 0 7.91 6.412 14.321 14.321 14.321s14.321-6.411 14.321-14.32c0-7.91-6.412-14.322-14.321-14.322Zm-23.287 14.321c0-12.86 10.426-23.287 23.287-23.287 12.861 0 23.287 10.426 23.287 23.287 0 12.861-10.426 23.288-23.287 23.288-12.861 0-23.287-10.427-23.287-23.288Z" fill="#f56f00"/><path d="M61.268 75.777c-5.413 0-9.802 4.388-9.802 9.802 0 5.413 4.389 9.802 9.802 9.802 5.414 0 9.802-4.389 9.802-9.802a9.801 9.801 0 0 0-9.802-9.802ZM42.5 85.579c0-10.365 8.403-18.769 18.768-18.769 10.366 0 18.769 8.403 18.769 18.768s-8.403 18.768-18.769 18.768C50.903 104.347 42.5 95.944 42.5 85.58v-.001Z" fill="#e100a0"/><path d="M84.592 136.892c-7.909 0-14.32 6.411-14.32 14.321 0 7.909 6.411 14.321 14.32 14.321 7.91 0 14.322-6.412 14.322-14.321 0-7.91-6.412-14.321-14.322-14.321Zm-23.287 14.321c0-12.861 10.426-23.288 23.287-23.288 12.862 0 23.288 10.427 23.288 23.288S97.454 174.5 84.592 174.5c-12.86 0-23.287-10.426-23.287-23.287Z" fill="#ff1958"/><path d="M155.158 141.301c-5.251 0-9.572 4.321-9.572 9.572 0 5.251 4.321 9.572 9.572 9.572 5.251 0 9.572-4.321 9.572-9.572 0-5.251-4.321-9.572-9.572-9.572Zm-18.538 9.572c0-10.238 8.299-18.538 18.538-18.538 10.238 0 18.538 8.3 18.538 18.538s-8.3 18.538-18.538 18.538c-10.239 0-18.538-8.3-18.538-18.538Z" fill="#a900c0"/></svg>
